<svg width="181" height="84" viewBox="0 0 181 84" fill="none" xmlns="http://www.w3.org/2000/svg">
<path fill-rule="evenodd" clip-rule="evenodd" d="M79.6335 13.9207C82.1454 14.8793 83.8095 16.4725 83.8095 16.4725C83.8285 15.6989 84.0293 14.904 84.319 14.2309C84.319 14.2309 83.5149 12.7299 81.1421 11.1039C78.594 9.3569 75.6854 8.86975 75.6854 8.86975C75.092 10.1576 74.6706 11.54 74.4517 12.9883C74.4517 12.9883 76.58 12.7563 79.6335 13.9207Z" fill="black"/>
<path fill-rule="evenodd" clip-rule="evenodd" d="M81.4375 8.84878C83.8341 11.166 84.7 13.4948 84.7 13.4948C85.1436 12.7839 85.7329 12.1716 86.4283 11.6976C86.4283 11.6976 85.5386 8.90391 84.0975 6.8401C82.6564 4.77711 80.3214 3.06384 80.3214 3.06384C79.1815 3.94269 78.1667 4.9746 77.3108 6.12912C77.3108 6.12912 79.6877 7.15609 81.4375 8.84878Z" fill="black"/>
<mask id="mask0_2106_8725" style="mask-type:luminance" maskUnits="userSpaceOnUse" x="83" y="0" width="7" height="12">
<path fill-rule="evenodd" clip-rule="evenodd" d="M83.4304 0H89.4911V11.3465H83.4304V0Z" fill="white"/>
</mask>
<g mask="url(#mask0_2106_8725)">
<path fill-rule="evenodd" clip-rule="evenodd" d="M85.6534 5.95491C86.7357 8.7223 87.0114 11.3465 87.0114 11.3465C87.7225 10.9713 88.646 10.6816 89.4904 10.6125C89.4904 10.6125 89.5332 7.9422 88.9456 5.19785C88.2575 1.99021 87.4723 -0.000366211 87.4723 -0.000366211C86.0526 0.2177 84.6962 0.626678 83.4304 1.19859C83.4304 1.19859 84.9053 4.04333 85.6534 5.95491Z" fill="black"/>
</g>
<path fill-rule="evenodd" clip-rule="evenodd" d="M99.9697 13.9207C97.457 14.8793 95.7936 16.4725 95.7936 16.4725C95.7747 15.6989 95.5739 14.904 95.2842 14.2309C95.2842 14.2309 96.0883 12.7299 98.4603 11.1039C101.009 9.3569 103.918 8.86975 103.918 8.86975C104.512 10.1576 104.932 11.54 105.151 12.9883C105.151 12.9883 103.023 12.7563 99.9697 13.9207Z" fill="black"/>
<path fill-rule="evenodd" clip-rule="evenodd" d="M98.1653 8.84878C95.7695 11.166 94.9028 13.4948 94.9028 13.4948C94.46 12.7839 93.8699 12.1716 93.1744 11.6976C93.1744 11.6976 94.0641 8.90391 95.5061 6.8401C96.9472 4.77711 99.2813 3.06384 99.2813 3.06384C100.421 3.94269 101.436 4.9746 102.293 6.12912C102.293 6.12912 99.9151 7.15609 98.1653 8.84878Z" fill="black"/>
<mask id="mask1_2106_8725" style="mask-type:luminance" maskUnits="userSpaceOnUse" x="90" y="0" width="7" height="12">
<path fill-rule="evenodd" clip-rule="evenodd" d="M90.1112 0H96.1727V11.3465H90.1112V0Z" fill="white"/>
</mask>
<g mask="url(#mask1_2106_8725)">
<path fill-rule="evenodd" clip-rule="evenodd" d="M93.9497 5.95491C92.8666 8.7223 92.5917 11.3465 92.5917 11.3465C91.8806 10.9713 90.9571 10.6816 90.1119 10.6125C90.1119 10.6125 90.0691 7.9422 90.6576 5.19785C91.3456 1.99021 92.13 -0.000366211 92.13 -0.000366211C93.5505 0.2177 94.9069 0.626678 96.1727 1.19859C96.1727 1.19859 94.697 4.04333 93.9497 5.95491Z" fill="black"/>
</g>
<path fill-rule="evenodd" clip-rule="evenodd" d="M81.7172 23.3426C84.7105 21.9174 87.7294 22.212 87.7294 22.212C86.6578 21.8137 85.7311 21.1241 85.048 20.242C85.048 20.242 82.3674 19.9219 80.3131 20.3358C77.2037 20.9628 75.8259 22.0425 75.8259 22.0425C76.4572 23.341 77.2662 24.5375 78.2209 25.6031C78.2209 25.6031 79.5049 24.3959 81.7172 23.3426Z" fill="black"/>
<path fill-rule="evenodd" clip-rule="evenodd" d="M79.3904 18.8306C82.4422 18.6842 84.5475 19.4815 84.5475 19.4815C84.1689 18.7994 83.9211 18.0365 83.838 17.226C83.838 17.226 81.4142 15.8452 79.1797 15.5456C76.0867 15.1309 74.2834 15.7242 74.2834 15.7242C74.323 17.189 74.5666 18.6035 74.9871 19.9399C74.9871 19.9399 76.969 18.9467 79.3904 18.8306Z" fill="black"/>
<path fill-rule="evenodd" clip-rule="evenodd" d="M89.8011 25.679C94.1697 25.679 96.0808 29.4594 96.0808 29.4594C97.4438 28.8546 98.7022 28.0621 99.8231 27.1158C99.8231 27.1158 96.1327 22.4739 89.8011 22.4739C83.4703 22.4739 79.7791 27.1158 79.7791 27.1158C80.9017 28.0621 82.1601 28.8546 83.5222 29.4594C83.5222 29.4594 85.4325 25.679 89.8011 25.679Z" fill="black"/>
<path fill-rule="evenodd" clip-rule="evenodd" d="M97.8856 23.3426C94.8923 21.9174 91.8726 22.212 91.8726 22.212C92.945 21.8137 93.8717 21.1241 94.5548 20.242C94.5548 20.242 97.2354 19.9219 99.2897 20.3358C102.399 20.9628 103.778 22.0425 103.778 22.0425C103.146 23.341 102.337 24.5375 101.381 25.6031C101.381 25.6031 100.098 24.3959 97.8856 23.3426Z" fill="black"/>
<path fill-rule="evenodd" clip-rule="evenodd" d="M100.212 18.8306C97.1598 18.6842 95.0553 19.4815 95.0553 19.4815C95.4339 18.7994 95.6808 18.0365 95.7648 17.226C95.7648 17.226 98.1886 15.8452 100.423 15.5456C103.516 15.1309 105.319 15.7242 105.319 15.7242C105.28 17.189 105.036 18.6035 104.616 19.9399C104.616 19.9399 102.633 18.9467 100.212 18.8306Z" fill="black"/>
<path fill-rule="evenodd" clip-rule="evenodd" d="M28.5188 35.3034V40.8325H30.8512C33.3228 40.8325 34.3944 39.8647 34.3944 38.0675C34.3944 36.2712 33.3401 35.3034 30.8512 35.3034H28.5188ZM28.5188 45.7567H30.1261V47.0173H25.4777V45.7567H27.0842V35.2524H25.4777V33.9901H30.8512C33.824 33.9901 35.8281 35.2862 35.8281 38.0675C35.8281 40.8497 33.8067 42.145 30.8512 42.145H28.5188V45.7567Z" fill="black"/>
<path fill-rule="evenodd" clip-rule="evenodd" d="M44.4879 41.8512C44.5052 40.0894 43.1744 38.7415 41.395 38.7415C39.6148 38.7415 38.2839 40.0894 38.3012 41.8512H44.4879ZM45.5941 44.3569C45.1793 45.9813 43.6583 47.2247 41.395 47.2247C38.595 47.2247 36.8848 45.4629 36.8848 42.3523C36.8848 39.399 38.6642 37.48 41.395 37.48C44.3497 37.48 46.2336 39.7438 45.8533 43.0954H38.3185C38.4395 44.5297 39.4419 45.964 41.395 45.964C42.6904 45.964 43.641 45.4283 44.125 44.3569H45.5941Z" fill="black"/>
<path fill-rule="evenodd" clip-rule="evenodd" d="M50.6245 45.8082H52.1109V47.0178H47.7562V45.8082H49.2418V38.8975H47.7562V37.6879H49.2418H50.5208V39.0177C51.0739 38.0162 52.4393 37.0822 54.2705 37.7043V39.0531C52.0763 38.431 50.6245 39.6398 50.6245 41.7818V45.8082Z" fill="black"/>
<path fill-rule="evenodd" clip-rule="evenodd" d="M65.1758 45.8082H66.6622V47.0178H62.3075V45.8082H63.7931V41.869C63.7931 39.6751 62.4804 38.7593 61.0458 38.7593C59.6113 38.7593 58.385 39.7607 58.385 41.9554V45.8082H59.8705V47.0178H55.5159V45.8082H57.0023V38.8975H55.5159V37.6879H57.0023H58.2813V39.0177C58.7817 38.2408 59.8532 37.4969 61.3051 37.4969C63.361 37.4969 65.1758 38.672 65.1758 41.869V45.8082Z" fill="black"/>
<path fill-rule="evenodd" clip-rule="evenodd" d="M72.4532 45.9641C74.268 45.9641 75.6153 44.6845 75.6153 42.3525C75.6153 40.0204 74.268 38.7416 72.4532 38.7416C70.6384 38.7416 69.2911 40.0204 69.2911 42.3525C69.2911 44.6845 70.6384 45.9641 72.4532 45.9641ZM72.4532 37.4801C75.3215 37.4801 76.998 39.5365 76.998 42.3525C76.998 45.1684 75.3215 47.2248 72.4532 47.2248C69.585 47.2248 67.9084 45.1684 67.9084 42.3525C67.9084 39.5365 69.585 37.4801 72.4532 37.4801Z" fill="black"/>
<path fill-rule="evenodd" clip-rule="evenodd" d="M80.0414 42.3526C80.0414 44.7201 81.4414 45.9643 83.1689 45.9643C84.8973 45.9643 86.2972 44.7201 86.2972 42.3526C86.2972 39.9852 84.8973 38.741 83.1689 38.741C81.4414 38.741 80.0414 39.9852 80.0414 42.3526ZM87.6273 45.808H89.1137V47.0176H86.2972V45.6878C85.7442 46.5173 84.5343 47.225 83.0479 47.225C80.3871 47.225 78.6587 45.1348 78.6587 42.3526C78.6587 39.5704 80.3871 37.4803 83.0479 37.4803C84.4479 37.4803 85.675 38.1024 86.2454 39.0174V35.1828H84.759V33.9723H87.6273V45.808Z" fill="black"/>
<path fill-rule="evenodd" clip-rule="evenodd" d="M98.396 35.3034V40.1412H101.455C103.408 40.1412 104.254 39.1735 104.254 37.7219C104.254 36.2711 103.425 35.3034 101.455 35.3034H98.396ZM95.3376 33.9728H101.455C103.909 33.9728 105.706 35.2861 105.706 37.7219C105.706 39.7956 104.393 41.0571 102.492 41.3854L104.617 45.7393H106.311V47.0173H103.598L100.919 41.4718H98.396V45.7566H99.8306V47.0173H95.3376V45.7566H96.9442V35.2343H95.3376V33.9728Z" fill="black"/>
<mask id="mask2_2106_8725" style="mask-type:luminance" maskUnits="userSpaceOnUse" x="0" y="14" width="181" height="70">
<path fill-rule="evenodd" clip-rule="evenodd" d="M0 83.0373H180.222V14.25H0V83.0373Z" fill="white"/>
</mask>
<g mask="url(#mask2_2106_8725)">
<path fill-rule="evenodd" clip-rule="evenodd" d="M109.32 35.7185H110.893V33.9731H109.32V35.7185ZM110.875 45.808H112.361V47.0176H108.006V45.808H109.493V38.8973H108.006V37.6877H109.493H110.875V45.808Z" fill="black"/>
<path fill-rule="evenodd" clip-rule="evenodd" d="M122.713 43.6143C122.177 45.739 120.743 47.2252 118.204 47.2252C115.334 47.2252 113.658 45.1688 113.658 42.3528C113.658 39.5369 115.334 37.4805 118.204 37.4805C119.534 37.4805 120.743 38.119 121.296 39.0176V37.6878H122.628V41.0913H121.123C120.708 39.8298 119.862 38.7411 118.204 38.7411C116.388 38.7411 115.041 40.0207 115.041 42.3528C115.041 44.6849 116.388 45.9637 118.204 45.9637C119.776 45.9637 120.847 45.0132 121.279 43.6143H122.713Z" fill="black"/>
<path fill-rule="evenodd" clip-rule="evenodd" d="M125.756 42.3527C125.756 44.7202 127.155 45.9644 128.884 45.9644C130.611 45.9644 132.012 44.7202 132.012 42.3527C132.012 39.9852 130.611 38.741 128.884 38.741C127.155 38.741 125.756 39.9852 125.756 42.3527ZM131.96 37.6877H134.777V38.8974H133.29V45.808H134.777V47.0177H131.96V45.6879C131.39 46.6029 130.163 47.225 128.763 47.225C126.102 47.225 124.374 45.1349 124.374 42.3527C124.374 39.5705 126.102 37.4803 128.763 37.4803C130.163 37.4803 131.39 38.1025 131.96 39.0175V37.6877Z" fill="black"/>
<path fill-rule="evenodd" clip-rule="evenodd" d="M139.652 45.8082H141.138V47.0178H136.783V45.8082H138.269V38.8975H136.783V37.6879H138.269H139.548V39.0177C140.101 38.0162 141.466 37.0822 143.298 37.7043V39.0531C141.104 38.431 139.652 39.6398 139.652 41.7818V45.8082Z" fill="black"/>
<path fill-rule="evenodd" clip-rule="evenodd" d="M145.39 42.3526C145.39 44.7201 146.789 45.9643 148.517 45.9643C150.245 45.9643 151.646 44.7201 151.646 42.3526C151.646 39.9852 150.245 38.741 148.517 38.741C146.789 38.741 145.39 39.9852 145.39 42.3526ZM152.977 45.808H154.461V47.0176H151.646V45.6878C151.093 46.5173 149.883 47.225 148.396 47.225C145.736 47.225 144.007 45.1348 144.007 42.3526C144.007 39.5704 145.736 37.4803 148.396 37.4803C149.796 37.4803 151.024 38.1024 151.594 39.0174V35.1828H150.107V33.9723H152.977V45.808Z" fill="black"/>
<path fill-rule="evenodd" clip-rule="evenodd" d="M9.59947 67.0435L6.88346 67.757C5.84398 67.9825 4.91642 68.0927 4.10244 68.0927C1.36669 68.0927 -0.000366211 67.1061 -0.000366211 65.1328C-0.000366211 64.1889 0.442424 63.0805 1.32554 61.8149C2.06709 60.7558 2.89753 59.8704 3.81027 59.1586C4.92465 58.297 5.91147 57.865 6.77894 57.865C8.03159 57.865 8.6571 58.4558 8.6571 59.6391C8.6571 59.835 8.58796 60.4736 8.44064 61.5516C8.1139 61.5022 7.92048 61.4602 7.85629 61.4298C7.74189 61.3697 7.61843 61.2191 7.48839 60.9813C7.62831 60.4061 7.7032 59.9634 7.7032 59.6548C7.7032 59.0779 7.38304 58.7907 6.74684 58.7907C5.87031 58.7907 4.92877 59.2162 3.92138 60.0712C3.10658 60.7706 2.4177 61.5754 1.85228 62.4938C1.21443 63.5207 0.897561 64.4366 0.897561 65.2422C0.897561 66.0314 1.28027 66.6337 2.03581 67.0435C2.6465 67.3743 3.38311 67.5406 4.24236 67.5406C4.72795 67.5406 5.30736 67.5035 5.97319 67.4295C6.21105 67.4114 6.78717 67.3348 7.7032 67.1991C7.90567 67.167 8.20114 67.0822 8.58302 66.9407C8.96409 66.7975 9.24968 66.7078 9.44638 66.6757C9.50729 66.7687 9.55996 66.8897 9.59947 67.0435Z" fill="black"/>
<path fill-rule="evenodd" clip-rule="evenodd" d="M16.4196 64.39L13.9991 63.6058C13.4015 63.6058 12.8789 64.0107 12.4221 64.8221C12.2567 65.1018 11.9835 65.7577 11.6007 66.7929C11.2131 67.8264 10.5925 68.344 9.73987 68.344C9.78925 67.9178 10.0551 67.3393 10.5399 66.597C11.0633 65.7964 11.3777 65.2047 11.483 64.8221C11.567 64.5061 11.6221 63.9786 11.6518 63.2503C11.66 62.9401 11.7341 62.6208 11.869 62.2925C12.0542 61.8317 12.2641 61.5889 12.502 61.5708L12.7974 61.584L12.9505 62.6332C13.0172 62.9031 13.2657 63.0339 13.674 63.0339H14.2007C14.2921 63.024 14.3645 63.0191 14.4139 63.0191C15.5982 62.9985 16.2681 63.4577 16.4196 64.39Z" fill="black"/>
<path fill-rule="evenodd" clip-rule="evenodd" d="M22.7305 60.8444C22.0844 61.4789 21.677 61.7973 21.5116 61.785C21.3997 61.785 21.2671 61.743 21.1108 61.6624C21.082 61.6402 20.9585 61.5711 20.7412 61.4468L20.8499 61.2287C20.9626 60.9926 21.3453 60.5359 21.9898 59.8561L22.6704 59.146C22.9914 58.8481 23.2696 58.6975 23.505 58.6975C23.8161 58.6975 23.9675 58.8481 23.9675 59.146C23.9675 59.4636 23.5568 60.0298 22.7305 60.8444ZM22.3766 63.9435C22.0696 63.6135 21.6943 63.4497 21.2523 63.4497C20.933 63.4497 20.6458 63.5172 20.3882 63.6505C20.3775 63.662 20.1166 63.8052 19.603 64.0858C19.9116 64.5763 20.333 64.8223 20.8655 64.8223C21.4746 64.8223 21.9782 64.5302 22.3766 63.9435ZM23.9675 66.9067C23.6589 67.2441 22.928 67.5033 21.7774 67.6802C20.9626 67.8036 20.1338 67.8629 19.2935 67.8629C17.552 67.8629 16.6862 67.3667 16.6862 66.3669C16.6862 65.1457 17.589 64.0908 19.4022 63.2168C20.0293 62.9099 20.6811 62.6573 21.3601 62.4631C22.0169 62.6169 22.4564 62.7313 22.6704 62.8021C23.1363 62.9543 23.3651 63.3419 23.3651 63.9558C23.3651 64.5055 23.0169 64.9367 22.3173 65.256C21.7305 65.5234 21.133 65.66 20.5248 65.66C19.5791 65.66 18.9001 65.5152 18.4886 65.2222C17.975 65.4732 17.7166 65.79 17.7166 66.1801C17.7166 66.8697 18.3421 67.2169 19.603 67.2169C20.0622 67.2169 20.603 67.1832 21.2219 67.1239C22.6704 66.9791 23.5889 66.9067 23.9675 66.9067Z" fill="black"/>
<path fill-rule="evenodd" clip-rule="evenodd" d="M31.9158 68.3566V68.3097H31.947V68.2652H31.9158V68.1698H31.9783V68.2027H31.947V68.2348H31.9783V68.3566H31.9158ZM31.4063 62.8292C31.4063 62.463 31.0853 62.2811 30.45 62.2811C29.5117 62.2811 28.7364 62.4885 28.1191 62.9098C27.5422 63.2999 26.9447 63.829 26.3315 64.4832C25.548 65.316 25.1554 65.9743 25.1554 66.4598C25.1554 66.7478 25.2813 66.9692 25.5249 67.1239C25.743 67.2572 26.0064 67.3214 26.315 67.3214C27.2072 67.3214 27.9759 67.0078 28.6138 66.3833C28.7702 66.2269 29.2064 65.6369 29.9273 64.6066C30.3668 63.9722 30.7932 63.6504 31.2071 63.6504C31.3388 63.3649 31.4063 63.0958 31.4063 62.8292ZM31.9627 68.0496C31.7347 68.5434 31.4664 68.7869 31.1594 68.7869C30.8088 68.7869 30.4212 68.5318 29.9973 68.0175C29.6705 67.625 29.4031 67.2062 29.2022 66.7511C28.3381 67.1642 27.7479 67.4292 27.4393 67.5542C26.6788 67.8538 26.0657 67.9994 25.6031 67.9994C24.7908 67.9994 24.3859 67.5896 24.3859 66.7684C24.3859 65.4427 25.1035 64.261 26.5471 63.2168C27.0212 62.881 27.6558 62.514 28.4607 62.124C29.4154 61.6623 30.0961 61.4294 30.4977 61.4294C30.7734 61.4294 31.0351 61.5759 31.2845 61.8779C31.5265 62.175 31.6532 62.4696 31.6532 62.7551C31.6532 63.3229 31.4294 64.0652 30.9816 64.9843C30.5356 65.9068 30.3109 66.4392 30.3109 66.584C30.3109 67.0753 30.3891 67.4176 30.5388 67.6011C30.6681 67.7567 31.138 67.9064 31.9627 68.0496Z" fill="black"/>
<path fill-rule="evenodd" clip-rule="evenodd" d="M38.6294 58.6507C38.6294 58.9107 38.5397 59.1987 38.366 59.5139C38.2928 59.6489 37.9776 60.0875 37.4261 60.8272C37.6837 61.0017 37.943 61.1737 38.2097 61.3366C38.5051 61.5728 38.6294 61.8427 38.5973 62.1381L38.5825 62.3084C38.5701 62.3084 38.3364 62.2344 37.8706 62.092C37.5767 61.9999 37.3422 61.9554 37.1776 61.9554C36.6146 61.9554 35.7965 62.5512 34.7315 63.7345C33.6665 64.9252 33.1332 65.814 33.1332 66.3991C33.1332 66.9035 33.5875 67.2688 34.4937 67.4919C35.069 67.6367 35.7142 67.7058 36.4393 67.7058C36.7134 67.7058 36.9973 67.6893 37.2854 67.6466C37.2747 67.7009 37.3232 67.7922 37.4261 67.9255C36.7784 68.1699 36.1331 68.2975 35.4937 68.2975C33.1826 68.2975 32.0246 67.728 32.0246 66.5965C32.0246 65.93 32.604 64.9508 33.7653 63.6506L35.0961 62.1686L34.5554 62.1381C34.3282 62.1307 34.0221 62.1916 33.6418 62.3233C32.8912 62.5882 32.4517 62.7281 32.3168 62.7281C32.1439 62.7281 31.981 62.6722 31.8295 62.5627C31.6814 62.4582 31.6073 62.32 31.6073 62.1546C31.6073 61.753 32.0633 61.5514 32.9809 61.5514C33.0731 61.5514 33.204 61.558 33.3859 61.5711C33.5562 61.5761 33.6912 61.5835 33.7842 61.5835C34.5661 61.5835 35.2114 61.4502 35.7216 61.1803C36.2311 60.9153 36.6772 60.4536 37.0689 59.7937C37.2039 59.5666 37.52 58.9321 38.0105 57.8796C38.1455 57.8796 38.2804 57.9743 38.4179 58.157C38.5603 58.3405 38.6294 58.5092 38.6294 58.6507Z" fill="black"/>
<path fill-rule="evenodd" clip-rule="evenodd" d="M44.5406 63.9432C44.2295 63.614 43.8558 63.4494 43.4122 63.4494C43.0945 63.4494 42.8065 63.5169 42.5505 63.651C42.5382 63.6617 42.2764 63.8049 41.762 64.0863C42.0707 64.5768 42.4912 64.822 43.0262 64.822C43.6328 64.822 44.1389 64.5299 44.5406 63.9432ZM46.1299 66.9072C45.8188 67.2446 45.0879 67.503 43.9398 67.6799C43.1258 67.8033 42.2978 67.8634 41.4518 67.8634C39.7135 67.8634 38.8419 67.3664 38.8419 66.3666C38.8419 65.1454 39.7489 64.0913 41.5596 63.2165C42.1875 62.9096 42.8418 62.6578 43.5225 62.4628C44.1793 62.6175 44.6155 62.731 44.8295 62.8018C45.2945 62.9549 45.5282 63.3424 45.5282 63.9563C45.5282 64.506 45.1751 64.9364 44.4789 65.2565C43.892 65.5231 43.2945 65.6597 42.6871 65.6597C41.7406 65.6597 41.06 65.5149 40.6501 65.2228C40.1365 65.4729 39.8789 65.7897 39.8789 66.1806C39.8789 66.8702 40.5061 67.2174 41.762 67.2174C42.2229 67.2174 42.7637 67.1837 43.3801 67.1236C44.8295 66.9788 45.748 66.9072 46.1299 66.9072Z" fill="black"/>
<path fill-rule="evenodd" clip-rule="evenodd" d="M56.8716 61.7075C56.8716 62.077 56.6107 62.5707 56.0971 63.1879C55.8099 63.5269 55.3012 64.1457 54.5687 65.041C54.0239 65.7191 53.7506 66.3428 53.7506 66.9065C53.7506 67.206 53.9408 67.3484 54.3243 67.3394C54.4074 67.3394 54.4815 67.3344 54.5572 67.3212H54.7095C54.865 67.3212 55.0272 67.3484 55.2049 67.3986L55.4214 67.6463C55.3802 67.6586 55.1259 67.7245 54.6642 67.8471C54.3556 67.9178 54.1029 67.9565 53.907 67.9565C53.484 67.9565 53.186 67.8537 53.0091 67.6463C52.8675 67.4628 52.7984 67.1542 52.7984 66.7205V66.3667C52.7984 66.2556 52.8025 66.1371 52.8099 66.0128C52.1021 66.4646 51.6009 66.7716 51.3104 66.9402C50.0182 67.6463 48.9022 67.9993 47.9664 67.9993C46.922 67.9993 46.4067 67.7508 46.4067 67.2447C46.4067 66.8777 46.8792 66.11 47.8289 64.9505C48.4742 64.1572 49.1178 63.4413 49.7433 62.8019C50.5622 61.9675 51.0923 61.5519 51.3301 61.5519C51.5252 61.5519 51.6239 61.6548 51.6239 61.8605C51.6239 62.1304 51.2486 62.6941 50.4947 63.559C50.1672 63.9194 49.6717 64.4699 49.0141 65.2114C48.3458 65.984 47.9162 66.593 47.717 67.0431L47.8734 67.1995C47.9425 67.1995 48.047 67.206 48.1853 67.2167C48.3137 67.2266 48.4174 67.2299 48.4898 67.2299C48.8125 67.2299 49.1474 67.1575 49.5079 67.0143C49.7227 66.9213 50.0487 66.7831 50.4799 66.5963C51.5721 66.1527 52.4075 65.7026 52.9795 65.2418C53.2799 65.0056 53.6864 64.53 54.2017 63.819C54.4214 63.503 54.8387 62.9319 55.4362 62.1058C55.8469 61.5519 56.1588 61.2771 56.3745 61.2771C56.4996 61.2771 56.6313 61.3281 56.7794 61.4293L56.8716 61.7075Z" fill="black"/>
<path fill-rule="evenodd" clip-rule="evenodd" d="M63.5542 64.39L61.1288 63.6058C60.5353 63.6058 60.007 64.0107 59.5568 64.8221C59.3938 65.1018 59.1181 65.7577 58.7272 66.7929C58.3395 67.8264 57.7247 68.344 56.8712 68.344C56.9198 67.9178 57.1881 67.3393 57.6728 66.597C58.1979 65.7964 58.5107 65.2047 58.6119 64.8221C58.6951 64.5061 58.7527 63.9786 58.7806 63.2503C58.7971 62.9401 58.8662 62.6208 58.9996 62.2925C59.1848 61.8317 59.3996 61.5889 59.6308 61.5708L59.9255 61.584L60.0794 62.6332C60.1543 62.9031 60.3921 63.0339 60.8086 63.0339H61.3279C61.4226 63.024 61.4934 63.0191 61.5477 63.0191C62.7295 62.9985 63.3946 63.4577 63.5542 64.39Z" fill="black"/>
<path fill-rule="evenodd" clip-rule="evenodd" d="M73.132 60.5358C73.0423 61.018 72.6563 61.3571 71.9798 61.5513C71.5749 61.6591 70.8613 61.8344 69.835 62.0919C68.9469 62.3199 68.3058 62.64 67.9025 63.0514C69.1996 63.369 70.0103 63.5879 70.328 63.7114C71.4555 64.136 72.0259 64.6231 72.0259 65.1794C72.0259 65.9842 71.3477 66.7314 70.0029 67.4292C68.8119 68.0381 67.7716 68.3434 66.8836 68.3434C66.1568 68.3434 65.4844 68.0562 64.8812 67.4917C64.2194 66.8779 63.9174 66.2154 63.9709 65.5201L63.9857 65.2864C64.2705 65.3893 64.6902 65.8204 65.2342 66.5841C65.747 67.291 66.2013 67.6464 66.5922 67.6464C67.2622 67.6464 68.1247 67.4226 69.1848 66.9692C70.4103 66.4442 71.0193 65.8994 71.0193 65.3333C71.0193 64.9317 70.6605 64.6231 69.9411 64.4059C69.9082 64.4059 69.1428 64.2117 67.6391 63.8192C66.8112 63.6052 66.2589 63.3518 66.0071 63.0654C66.3132 62.728 66.9264 62.3668 67.8441 61.9858C68.4301 61.7414 69.3033 61.4394 70.4654 61.0888C71.7189 60.7078 72.4613 60.4766 72.6901 60.3976C72.8201 60.4651 72.9715 60.5153 73.132 60.5358Z" fill="black"/>
<path fill-rule="evenodd" clip-rule="evenodd" d="M84.8328 65.0103C84.8328 64.1973 84.4682 63.7892 83.7382 63.7892C83.2081 63.7892 82.5793 64.0303 81.8386 64.501C81.0395 65.0136 80.6337 65.5197 80.6337 66.0134C80.6337 66.536 81.3102 66.8009 82.6575 66.8009C84.1085 66.8009 84.8328 66.2043 84.8328 65.0103ZM88.5364 58.4659C88.4657 58.8888 88.2245 59.5759 87.8122 60.5363L86.5924 63.3728C86.0674 64.5989 85.7447 65.4333 85.6221 65.8735C86.1159 65.8735 86.399 65.9443 86.4673 66.09C86.3538 66.3459 86.1291 66.6495 85.7941 67.0001C85.4007 67.3984 85.0937 67.6008 84.8789 67.6008C84.7168 67.6008 84.4723 67.5835 84.1596 67.5481C83.8468 67.5111 83.609 67.4922 83.4444 67.4922C83.2584 67.4922 82.9859 67.5062 82.6254 67.5317C82.2666 67.5564 81.9909 67.5687 81.8082 67.5687C80.4609 67.5687 79.7885 67.1959 79.7885 66.4438C79.7885 65.5419 80.2691 64.71 81.2395 63.9562C82.153 63.2502 83.0798 62.8938 84.0147 62.8938C84.3036 62.8938 84.5875 62.9547 84.8674 63.0798C84.9275 63.1103 85.1785 63.2502 85.6221 63.4946L85.7571 63.3563V63.051L85.9143 62.9095C85.8624 62.6025 86.1406 61.7072 86.7546 60.2194C87.3686 58.7308 87.748 57.9869 87.8895 57.9869C88.0681 57.9869 88.2443 58.0626 88.4303 58.2042L88.5364 58.4659Z" fill="black"/>
<path fill-rule="evenodd" clip-rule="evenodd" d="M93.3212 63.9432C93.0109 63.614 92.6397 63.4494 92.1953 63.4494C91.8759 63.4494 91.5862 63.5169 91.3319 63.651C91.3196 63.6617 91.0611 63.8049 90.5426 64.0863C90.8545 64.5768 91.2726 64.822 91.8068 64.822C92.4191 64.822 92.9212 64.5299 93.3212 63.9432ZM94.9129 66.9072C94.6026 67.2446 93.871 67.503 92.7179 67.6799C91.9064 67.8033 91.0792 67.8634 90.2323 67.8634C88.4966 67.8634 87.6241 67.3664 87.6241 66.3666C87.6241 65.1454 88.5311 64.0913 90.341 63.2165C90.9722 62.9096 91.6257 62.6578 92.3047 62.4628C92.9615 62.6175 93.3985 62.731 93.6166 62.8018C94.0751 62.9549 94.3063 63.3424 94.3063 63.9563C94.3063 64.506 93.9607 64.9364 93.257 65.2565C92.671 65.5231 92.0767 65.6597 91.4685 65.6597C90.5229 65.6597 89.8414 65.5149 89.4307 65.2228C88.9171 65.4729 88.6603 65.7897 88.6603 66.1806C88.6603 66.8702 89.2875 67.2174 90.5426 67.2174C91.0068 67.2174 91.5484 67.1837 92.1648 67.1236C93.6166 66.9788 94.5286 66.9072 94.9129 66.9072Z" fill="black"/>
<path fill-rule="evenodd" clip-rule="evenodd" d="M111.208 66.9214C110.569 67.4184 109.626 67.7846 108.37 68.0323C107.371 68.2413 106.334 68.3442 105.269 68.3442C102.899 68.3442 101.715 67.6159 101.715 66.1677C101.715 64.6149 103.18 63.2036 106.116 61.9372C107.115 61.5068 108.072 61.1867 108.983 60.981C109.363 61.2064 109.553 61.4681 109.553 61.7528C109.553 62.124 109.429 62.5881 109.169 63.1575C108.873 63.815 108.56 64.1458 108.244 64.1458C108.09 64.1458 107.942 64.0956 107.79 63.996C107.641 63.9014 107.566 63.7796 107.566 63.6381C107.566 63.5031 107.844 63.0653 108.397 62.3231C108.225 62.2926 108.051 62.2671 107.891 62.2474C106.976 62.2474 105.899 62.6333 104.664 63.4036C103.297 64.2618 102.612 65.1226 102.612 65.9957C102.612 66.6433 102.933 67.1239 103.584 67.4291C104.078 67.6686 104.683 67.7846 105.408 67.7846C107.086 67.7846 108.506 67.6447 109.682 67.3534C109.711 67.346 109.869 67.2769 110.157 67.1543C110.343 67.0745 110.496 67.0309 110.622 67.0309C110.662 67.0309 110.701 67.0391 110.729 67.0432L110.883 66.9066L111.178 66.8893L111.208 66.9214Z" fill="black"/>
<path fill-rule="evenodd" clip-rule="evenodd" d="M119.989 64.9509C119.989 64.4415 119.733 64.0621 119.218 63.8046C118.803 63.5988 118.324 63.4943 117.763 63.4943C116.84 63.4943 115.882 63.7552 114.879 64.2662C113.829 64.7937 113.08 65.4364 112.625 66.1984C113.324 66.9069 114.167 67.2624 115.142 67.2624C116.081 67.2624 117.042 67.0937 118.031 66.7513C119.337 66.3012 119.989 65.6964 119.989 64.9509ZM120.839 65.0406C120.839 66.0066 120.138 66.7637 118.737 67.3084C117.679 67.7199 116.562 67.9256 115.389 67.9256C112.93 67.9256 111.701 67.3183 111.701 66.1029C111.701 65.2422 112.505 64.4012 114.108 63.5881C115.54 62.8665 116.745 62.5077 117.719 62.5077C118.582 62.5077 119.298 62.7101 119.868 63.1109C120.513 63.5635 120.839 64.207 120.839 65.0406Z" fill="black"/>
<path fill-rule="evenodd" clip-rule="evenodd" d="M129.029 64.2067C129.029 64.568 128.863 65.0872 128.523 65.7645C128.184 66.4442 127.873 66.9181 127.58 67.1831C127.593 67.3181 127.604 67.3987 127.61 67.4292C127.632 67.5032 127.668 67.5822 127.72 67.662C127.64 67.9706 127.431 68.127 127.102 68.127C126.928 68.127 126.772 68.0768 126.633 67.9706C126.492 67.8711 126.422 67.7361 126.422 67.5691C126.422 67.272 126.684 66.7634 127.212 66.0434C127.738 65.3234 127.997 64.8222 127.997 64.5474C127.997 64.0216 127.732 63.7582 127.194 63.7582C126.487 63.7582 125.796 64.089 125.129 64.7449C124.787 65.1053 124.164 65.7447 123.259 66.6589C122.542 67.3921 121.845 67.8135 121.176 67.9262V67.7847L121.041 67.6299C121.041 67.0868 121.545 66.2129 122.552 65.0107C123.123 64.3211 123.499 63.8191 123.663 63.5138C123.753 63.2439 123.857 62.9773 123.971 62.7107C124.065 62.5033 124.153 62.3585 124.241 62.2811C124.325 62.1964 124.469 62.1544 124.664 62.1544C124.951 62.1544 125.096 62.305 125.096 62.6029C125.096 62.8053 125.07 62.9707 125.023 63.0975C125.006 63.1361 124.896 63.4126 124.682 63.9286C125.566 63.4579 126.068 63.1946 126.193 63.1444C126.891 62.802 127.408 62.6333 127.738 62.6333C128.126 62.6333 128.437 62.7955 128.677 63.1205C128.91 63.4464 129.029 63.8051 129.029 64.2067Z" fill="black"/>
<path fill-rule="evenodd" clip-rule="evenodd" d="M136.16 60.5359C136.16 61.2444 135.68 62.0245 134.712 62.8811L132.523 64.8223C132.479 64.8734 132.385 65.084 132.24 65.4428L131.687 66.8006C131.347 67.6218 130.898 68.0316 130.344 68.0316C129.82 68.0316 129.557 67.6095 129.557 66.7512C129.557 66.6097 129.565 66.4056 129.59 66.1497C129.608 65.8526 129.616 65.6436 129.616 65.5325C129.629 65.2157 129.525 64.7549 129.31 64.1459C129.092 63.5362 128.984 63.0803 128.984 62.77C128.984 62.5643 129.038 62.3759 129.137 62.2022C129.244 62.0245 129.39 61.9373 129.59 61.9373C129.928 61.9373 130.195 62.5256 130.386 63.6974L130.774 66.0131C131.033 65.7448 131.574 65.126 132.394 64.1648C132.778 63.7213 133.11 63.3469 133.399 63.0515L135.868 60.5359H136.16Z" fill="black"/>
<path fill-rule="evenodd" clip-rule="evenodd" d="M138.935 59.2373C138.935 59.6067 138.692 59.7935 138.197 59.7935C137.747 59.7935 137.519 59.6067 137.519 59.2373C137.519 59.0521 137.581 58.7987 137.7 58.4662C137.817 58.1362 137.88 57.8918 137.887 57.7231C137.993 57.7873 138.19 58.0786 138.476 58.6069C138.496 58.6366 138.59 58.7295 138.754 58.8818C138.876 58.9978 138.935 59.1155 138.935 59.2373ZM137.489 63.4801C137.489 63.6455 137.203 64.4626 136.626 65.9348C136.552 66.1208 136.443 66.3923 136.302 66.7511C136.178 67.0309 136.017 67.2062 135.821 67.2769C135.707 67.3181 135.478 67.3395 135.129 67.3395C135.129 67.2687 135.112 67.1642 135.09 67.0309C135.064 66.8976 135.05 66.798 135.05 66.7207C135.05 66.4952 135.141 66.245 135.312 65.9669C135.548 65.5842 135.684 65.3547 135.711 65.274C135.796 65.014 135.957 64.5622 136.191 63.9146C136.366 63.4595 136.643 63.0802 137.027 62.7699C137.336 63.0802 137.489 63.3147 137.489 63.4801Z" fill="black"/>
<path fill-rule="evenodd" clip-rule="evenodd" d="M146.177 60.5359C146.177 61.2444 145.692 62.0245 144.727 62.8811L142.532 64.8223C142.494 64.8734 142.403 65.084 142.259 65.4428L141.703 66.8006C141.361 67.6218 140.913 68.0316 140.36 68.0316C139.835 68.0316 139.572 67.6095 139.572 66.7512C139.572 66.6097 139.582 66.4056 139.605 66.1497C139.624 65.8526 139.633 65.6436 139.633 65.5325C139.644 65.2157 139.541 64.7549 139.326 64.1459C139.109 63.5362 139.002 63.0803 139.002 62.77C139.002 62.5643 139.053 62.3759 139.154 62.2022C139.258 62.0245 139.407 61.9373 139.605 61.9373C139.946 61.9373 140.208 62.5256 140.402 63.6974L140.795 66.0131C141.049 65.7448 141.589 65.126 142.411 64.1648C142.793 63.7213 143.123 63.3469 143.414 63.0515L145.885 60.5359H146.177Z" fill="black"/>
<path fill-rule="evenodd" clip-rule="evenodd" d="M148.956 59.2373C148.956 59.6067 148.709 59.7935 148.214 59.7935C147.763 59.7935 147.535 59.6067 147.535 59.2373C147.535 59.0521 147.6 58.7987 147.716 58.4662C147.833 58.1362 147.895 57.8918 147.905 57.7231C148.009 57.7873 148.205 58.0786 148.494 58.6069C148.511 58.6366 148.604 58.7295 148.771 58.8818C148.893 58.9978 148.956 59.1155 148.956 59.2373ZM147.504 63.4801C147.504 63.6455 147.218 64.4626 146.641 65.9348C146.568 66.1208 146.46 66.3923 146.317 66.7511C146.195 67.0309 146.034 67.2062 145.837 67.2769C145.725 67.3181 145.495 67.3395 145.145 67.3395C145.145 67.2687 145.131 67.1642 145.108 67.0309C145.08 66.8976 145.066 66.798 145.066 66.7207C145.066 66.4952 145.154 66.245 145.327 65.9669C145.568 65.5842 145.698 65.3547 145.73 65.274C145.814 65.014 145.973 64.5622 146.206 63.9146C146.382 63.4595 146.661 63.0802 147.04 62.7699C147.353 63.0802 147.504 63.3147 147.504 63.4801Z" fill="black"/>
<path fill-rule="evenodd" clip-rule="evenodd" d="M156.734 68.3566V68.3097H156.763V68.2652H156.734V68.1698H156.795V68.2027H156.763V68.2348H156.795V68.3566H156.734ZM156.224 62.8292C156.224 62.463 155.902 62.2811 155.266 62.2811C154.329 62.2811 153.555 62.4885 152.937 62.9098C152.36 63.2999 151.76 63.829 151.151 64.4832C150.365 65.316 149.973 65.9743 149.973 66.4598C149.973 66.7478 150.098 66.9692 150.342 67.1239C150.562 67.2572 150.823 67.3214 151.131 67.3214C152.028 67.3214 152.796 67.0078 153.43 66.3833C153.587 66.2269 154.021 65.6369 154.746 64.6066C155.183 63.9722 155.612 63.6504 156.024 63.6504C156.157 63.3649 156.224 63.0958 156.224 62.8292ZM156.782 68.0496C156.552 68.5434 156.282 68.7869 155.976 68.7869C155.625 68.7869 155.245 68.5318 154.814 68.0175C154.49 67.625 154.222 67.2062 154.018 66.7511C153.154 67.1642 152.568 67.4292 152.259 67.5542C151.497 67.8538 150.883 67.9994 150.42 67.9994C149.611 67.9994 149.202 67.5896 149.202 66.7684C149.202 65.4427 149.92 64.261 151.364 63.2168C151.837 62.881 152.472 62.514 153.277 62.124C154.235 61.6623 154.911 61.4294 155.312 61.4294C155.589 61.4294 155.852 61.5759 156.101 61.8779C156.347 62.175 156.471 62.4696 156.471 62.7551C156.471 63.3229 156.245 64.0652 155.799 64.9843C155.351 65.9068 155.127 66.4392 155.127 66.584C155.127 67.0753 155.203 67.4176 155.355 67.6011C155.486 67.7567 155.956 67.9064 156.782 68.0496Z" fill="black"/>
<path fill-rule="evenodd" clip-rule="evenodd" d="M162.567 57.9579C162.567 58.0172 162.221 58.6796 161.536 59.9477L159.526 63.6375C158.693 65.1788 158.234 66.0741 158.152 66.3218L157.843 67.3084C157.669 67.7199 157.443 67.9256 157.166 67.9256C157.013 67.9256 156.834 67.8902 156.642 67.8162L156.47 67.5405C156.582 67.0032 156.969 66.1984 157.628 65.1195L159.589 61.8938C160.349 60.6488 160.848 59.6021 161.088 58.7569C161.124 58.5833 161.213 58.2797 161.349 57.8345C161.471 57.5242 161.669 57.2922 161.948 57.1416C162.102 57.1572 162.246 57.2585 162.374 57.442C162.503 57.6205 162.567 57.7925 162.567 57.9579Z" fill="black"/>
<path fill-rule="evenodd" clip-rule="evenodd" d="M165.59 59.2373C165.59 59.6067 165.343 59.7935 164.852 59.7935C164.398 59.7935 164.171 59.6067 164.171 59.2373C164.171 59.0521 164.229 58.7987 164.348 58.4662C164.469 58.1362 164.53 57.8918 164.543 57.7231C164.644 57.7873 164.836 58.0786 165.129 58.6069C165.148 58.6366 165.243 58.7295 165.402 58.8818C165.532 58.9978 165.59 59.1155 165.59 59.2373ZM164.142 63.4801C164.142 63.6455 163.85 64.4626 163.275 65.9348C163.204 66.1208 163.097 66.3923 162.953 66.7511C162.829 67.0309 162.669 67.2062 162.475 67.2769C162.364 67.3181 162.13 67.3395 161.778 67.3395C161.778 67.2687 161.767 67.1642 161.74 67.0309C161.712 66.8976 161.705 66.798 161.705 66.7207C161.705 66.4952 161.787 66.245 161.964 65.9669C162.199 65.5842 162.334 65.3547 162.367 65.274C162.451 65.014 162.607 64.5622 162.845 63.9146C163.019 63.4595 163.297 63.0802 163.676 62.7699C163.986 63.0802 164.142 63.3147 164.142 63.4801Z" fill="black"/>
<path fill-rule="evenodd" clip-rule="evenodd" d="M172.72 58.6507C172.72 58.9107 172.634 59.1987 172.461 59.5139C172.385 59.6489 172.07 60.0875 171.516 60.8272C171.776 61.0017 172.036 61.1737 172.304 61.3366C172.594 61.5728 172.72 61.8427 172.691 62.1381L172.674 62.3084C172.662 62.3084 172.428 62.2344 171.962 62.092C171.669 61.9999 171.437 61.9554 171.27 61.9554C170.704 61.9554 169.887 62.5512 168.824 63.7345C167.758 64.9252 167.225 65.814 167.225 66.3991C167.225 66.9035 167.683 67.2688 168.586 67.4919C169.162 67.6367 169.809 67.7058 170.53 67.7058C170.806 67.7058 171.088 67.6893 171.377 67.6466C171.367 67.7009 171.415 67.7922 171.516 67.9255C170.868 68.1699 170.228 68.2975 169.587 68.2975C167.272 68.2975 166.116 67.728 166.116 66.5965C166.116 65.93 166.698 64.9508 167.861 63.6506L169.186 62.1686L168.648 62.1381C168.42 62.1307 168.116 62.1916 167.734 62.3233C166.985 62.5882 166.545 62.7281 166.409 62.7281C166.236 62.7281 166.071 62.6722 165.922 62.5627C165.775 62.4582 165.698 62.32 165.698 62.1546C165.698 61.753 166.158 61.5514 167.072 61.5514C167.167 61.5514 167.298 61.558 167.473 61.5711C167.646 61.5761 167.782 61.5835 167.874 61.5835C168.656 61.5835 169.304 61.4502 169.815 61.1803C170.32 60.9153 170.772 60.4536 171.162 59.7937C171.297 59.5666 171.609 58.9321 172.105 57.8796C172.239 57.8796 172.376 57.9743 172.513 58.157C172.653 58.3405 172.72 58.5092 172.72 58.6507Z" fill="black"/>
<path fill-rule="evenodd" clip-rule="evenodd" d="M178.985 60.8444C178.339 61.4789 177.931 61.7973 177.767 61.785C177.654 61.785 177.522 61.743 177.367 61.6624C177.338 61.6402 177.209 61.5711 176.995 61.4468L177.105 61.2287C177.217 60.9926 177.597 60.5359 178.245 59.8561L178.925 59.146C179.242 58.8481 179.52 58.6975 179.758 58.6975C180.065 58.6975 180.222 58.8481 180.222 59.146C180.222 59.4636 179.812 60.0298 178.985 60.8444ZM178.632 63.9435C178.32 63.6135 177.946 63.4497 177.503 63.4497C177.188 63.4497 176.896 63.5172 176.64 63.6505C176.629 63.662 176.367 63.8052 175.851 64.0858C176.162 64.5763 176.581 64.8223 177.118 64.8223C177.729 64.8223 178.228 64.5302 178.632 63.9435ZM180.222 66.9067C179.915 67.2441 179.181 67.5033 178.028 67.6802C177.217 67.8036 176.39 67.8629 175.543 67.8629C173.804 67.8629 172.932 67.3667 172.932 66.3669C172.932 65.1457 173.839 64.0908 175.651 63.2168C176.282 62.9099 176.935 62.6573 177.614 62.4631C178.273 62.6169 178.705 62.7313 178.925 62.8021C179.386 62.9543 179.618 63.3419 179.618 63.9558C179.618 64.5055 179.268 64.9367 178.567 65.256C177.984 65.5234 177.387 65.66 176.778 65.66C175.834 65.66 175.154 65.5152 174.744 65.2222C174.227 65.4732 173.97 65.79 173.97 66.1801C173.97 66.8697 174.599 67.2169 175.851 67.2169C176.315 67.2169 176.855 67.1832 177.475 67.1239C178.925 66.9791 179.838 66.9067 180.222 66.9067Z" fill="black"/>
</g>
</svg>
